<svg width="148" height="41" fill="none" xmlns="http://www.w3.org/2000/svg"><path d="M23.454 18.97c-.037-4.365 3.573-6.487 3.731-6.585-2.048-2.975-5.22-3.39-6.329-3.427-2.658-.28-5.244 1.598-6.597 1.598-1.378 0-3.476-1.561-5.72-1.524-2.89.048-5.61 1.72-7.085 4.329-3.06 5.305-.78 13.11 2.158 17.402 1.476 2.097 3.183 4.451 5.44 4.366 2.194-.086 3.024-1.403 5.67-1.403 2.634 0 3.402 1.403 5.695 1.354 2.366-.037 3.841-2.11 5.268-4.232 1.695-2.402 2.378-4.78 2.403-4.902-.061-.024-4.586-1.756-4.634-6.976zm-4.33-12.829c1.183-1.475 1.988-3.487 1.769-5.536-1.708.073-3.854 1.183-5.086 2.634-1.085 1.28-2.06 3.366-1.817 5.33 1.927.146 3.903-.976 5.134-2.428zm36.183 28.683h-3.074l-1.682-5.293h-5.854L43.1 34.824h-2.987l5.792-18.012h3.586l5.817 18.012zm-5.256-7.512l-1.525-4.695c-.158-.488-.463-1.61-.902-3.39h-.061a156.73 156.73 0 01-.854 3.39l-1.5 4.695h4.842zm20.146.866c0 2.207-.598 3.95-1.805 5.231-1.073 1.147-2.415 1.708-4 1.708-1.72 0-2.951-.61-3.707-1.842v6.817h-2.89V26.105c0-1.39-.037-2.805-.11-4.269h2.536l.159 2.061h.048c.964-1.549 2.427-2.329 4.378-2.329 1.537 0 2.805.61 3.83 1.817 1.048 1.22 1.56 2.805 1.56 4.793zm-2.94.097c0-1.268-.28-2.305-.853-3.122-.622-.853-1.463-1.28-2.512-1.28-.708 0-1.354.244-1.94.707a3.266 3.266 0 00-1.133 1.854c-.086.353-.134.646-.134.878v2.17c0 .94.292 1.744.865 2.39.574.647 1.33.976 2.257.976 1.085 0 1.926-.427 2.536-1.256.61-.841.915-1.939.915-3.317zm17.866-.097c0 2.207-.597 3.95-1.805 5.231-1.073 1.147-2.414 1.708-4 1.708-1.72 0-2.95-.61-3.707-1.842v6.817h-2.89V26.105c0-1.39-.037-2.805-.11-4.269h2.537l.158 2.061h.049c.963-1.549 2.427-2.329 4.378-2.329 1.536 0 2.805.61 3.83 1.817 1.048 1.22 1.56 2.805 1.56 4.793zm-2.939.097c0-1.268-.28-2.305-.853-3.122-.622-.853-1.464-1.28-2.513-1.28-.707 0-1.353.244-1.939.707-.573.476-.95 1.085-1.134 1.854-.085.353-.134.646-.134.878v2.17c0 .94.293 1.744.866 2.39.573.647 1.33.976 2.256.976 1.085 0 1.939-.427 2.536-1.256.622-.841.915-1.939.915-3.317zm19.646 1.5c0 1.537-.536 2.78-1.597 3.744-1.171 1.049-2.805 1.573-4.903 1.573-1.939 0-3.487-.378-4.658-1.122l.67-2.402a8.1 8.1 0 004.171 1.122c1.085 0 1.94-.244 2.537-.732.61-.488.914-1.146.914-1.963a2.54 2.54 0 00-.743-1.842c-.5-.5-1.33-.963-2.488-1.39-3.183-1.183-4.756-2.902-4.756-5.158 0-1.476.56-2.683 1.67-3.634 1.11-.94 2.586-1.415 4.427-1.415 1.634 0 3 .28 4.085.854l-.731 2.34c-1.025-.548-2.171-.828-3.464-.828-1.012 0-1.817.256-2.39.744-.475.45-.72.987-.72 1.634 0 .707.281 1.305.83 1.756.475.427 1.354.89 2.622 1.39 1.549.622 2.683 1.354 3.414 2.195.744.842 1.11 1.89 1.11 3.134zm9.561-5.768h-3.183v6.305c0 1.597.561 2.402 1.683 2.402a5.35 5.35 0 001.28-.134l.086 2.195c-.573.207-1.317.317-2.244.317-1.146 0-2.024-.353-2.671-1.049-.646-.695-.963-1.865-.963-3.5v-6.548h-1.89v-2.159h1.89v-2.378l2.829-.853v3.231h3.183v2.171zm14.317 4.219c0 2-.573 3.634-1.708 4.915-1.195 1.317-2.78 1.976-4.756 1.976-1.902 0-3.426-.635-4.56-1.89-1.135-1.257-1.696-2.854-1.696-4.781 0-2.012.586-3.659 1.744-4.939 1.171-1.28 2.744-1.927 4.72-1.927 1.902 0 3.439.634 4.597 1.903 1.11 1.22 1.659 2.804 1.659 4.743zm-2.988.061c0-1.195-.256-2.207-.768-3.06-.61-1.037-1.476-1.55-2.598-1.55-1.158 0-2.049.513-2.646 1.55-.524.853-.768 1.89-.768 3.121 0 1.195.256 2.22.768 3.061.622 1.037 1.5 1.549 2.622 1.549 1.097 0 1.963-.524 2.597-1.573.525-.878.793-1.902.793-3.098zm12.378-3.914a5.356 5.356 0 00-.915-.073c-1.012 0-1.805.378-2.353 1.146-.476.67-.72 1.537-.72 2.56v6.818h-2.89v-8.902c0-1.5-.025-2.866-.085-4.086h2.512l.109 2.488h.086c.305-.854.78-1.549 1.439-2.06.646-.464 1.341-.696 2.085-.696.268 0 .512.024.72.049l.012 2.756zM148 27.714c0 .512-.037.951-.11 1.305h-8.658c.036 1.28.451 2.268 1.256 2.939.732.598 1.671.903 2.829.903 1.281 0 2.451-.208 3.5-.61l.451 2c-1.231.536-2.683.805-4.353.805-2.012 0-3.598-.598-4.744-1.78-1.146-1.184-1.72-2.781-1.72-4.77 0-1.95.537-3.584 1.61-4.89 1.122-1.39 2.634-2.085 4.537-2.085 1.865 0 3.292.696 4.243 2.086.769 1.122 1.159 2.475 1.159 4.097zm-2.756-.744c.024-.853-.171-1.597-.561-2.22-.5-.804-1.268-1.206-2.293-1.206-.939 0-1.707.39-2.292 1.17-.476.622-.769 1.378-.854 2.244l6 .012zM48.66 10.373h-1.512l-.829-2.597h-2.878l-.793 2.597h-1.463l2.841-8.853h1.756l2.878 8.853zm-2.597-3.695l-.744-2.317c-.073-.232-.22-.793-.451-1.67h-.025c-.097.377-.22.926-.426 1.67l-.732 2.317h2.378zm9.719-2.695l-2.414 6.39H51.99l-2.342-6.39h1.525l1.085 3.378c.183.56.341 1.097.463 1.61h.037c.11-.464.268-1 .463-1.61l1.074-3.378h1.487zm5.146 6.39l-.11-.732h-.036c-.439.586-1.06.878-1.866.878-1.146 0-1.95-.804-1.95-1.878 0-1.573 1.365-2.39 3.73-2.39V6.13c0-.841-.45-1.256-1.328-1.256-.635 0-1.183.159-1.671.476l-.293-.927c.585-.366 1.33-.549 2.195-.549 1.67 0 2.512.878 2.512 2.646v2.354c0 .646.025 1.146.098 1.525l-1.28-.025zm-.195-3.183c-1.573 0-2.365.378-2.365 1.293 0 .67.402 1 .975 1 .72 0 1.39-.549 1.39-1.305V7.19zm4.537-4.256a.83.83 0 01-.842-.853c0-.488.379-.842.866-.842.488 0 .878.354.866.842 0 .512-.366.853-.89.853zm-.683 1.049h1.415v6.378h-1.415V3.983zm3.939-2.927h1.415v9.305h-1.415V1.056zm7.439 9.317l-.11-.732h-.037c-.439.586-1.06.878-1.865.878-1.147 0-1.952-.804-1.952-1.878 0-1.573 1.366-2.39 3.732-2.39V6.13c0-.841-.451-1.256-1.33-1.256a2.98 2.98 0 00-1.67.476l-.293-.94c.586-.365 1.33-.548 2.195-.548 1.671 0 2.513.878 2.513 2.646v2.354c0 .646.024 1.146.085 1.524h-1.268v-.012zM75.77 7.19c-1.573 0-2.366.378-2.366 1.293 0 .67.402 1 .975 1 .72 0 1.39-.549 1.39-1.305V7.19zm7.134 3.33c-.903 0-1.573-.379-2.013-1.135h-.024l-.085.988h-1.207c.036-.512.048-1.085.048-1.72V1.057h1.427v3.866h.024c.427-.707 1.098-1.061 2.037-1.061 1.536 0 2.61 1.317 2.61 3.232 0 1.975-1.195 3.426-2.817 3.426zm-.293-5.55c-.817 0-1.561.708-1.561 1.696v1.122c0 .878.67 1.597 1.537 1.597 1.06 0 1.695-.866 1.695-2.244 0-1.292-.659-2.17-1.671-2.17zm5.207-3.914h1.415v9.305h-1.415V1.056zm9.134 6.464h-4.256c.025 1.207.83 1.89 2.012 1.89.635 0 1.208-.11 1.72-.305l.22.988c-.598.268-1.305.39-2.135.39-2 0-3.183-1.256-3.183-3.22 0-1.95 1.208-3.426 3.025-3.426 1.622 0 2.658 1.207 2.658 3.036 0 .256-.012.476-.06.646zM95.66 6.506c0-.987-.5-1.683-1.402-1.683-.817 0-1.451.708-1.549 1.683h2.951zm9.89 4.014c-1.866 0-3.074-1.39-3.074-3.281 0-1.976 1.232-3.378 3.183-3.378 1.842 0 3.073 1.33 3.073 3.268 0 1.988-1.268 3.39-3.182 3.39zm.061-5.622c-1.025 0-1.683.963-1.683 2.292 0 1.317.67 2.268 1.67 2.268 1 0 1.671-1.024 1.671-2.304-.012-1.293-.658-2.256-1.658-2.256zm10.743 5.475h-1.414v-3.67c0-1.135-.439-1.696-1.293-1.696-.841 0-1.415.72-1.415 1.561v3.793h-1.414V5.812c0-.56-.012-1.17-.049-1.83h1.244l.061.989h.036c.378-.683 1.159-1.122 2.025-1.122 1.341 0 2.219 1.024 2.219 2.695v3.83zm9.281-5.317h-1.561v3.098c0 .792.28 1.183.829 1.183.244 0 .463-.025.634-.061l.037 1.073c-.281.11-.647.158-1.098.158-1.122 0-1.78-.622-1.78-2.231v-3.22h-.927v-1.06h.927V2.823l1.39-.426v1.585h1.561v1.073m7.5 5.318h-1.415V6.727c0-1.147-.439-1.72-1.293-1.72-.731 0-1.414.5-1.414 1.512v3.842h-1.415V1.056h1.415v3.83h.024c.451-.696 1.085-1.037 1.915-1.037 1.353 0 2.183 1.049 2.183 2.72v3.804zm7.243-2.853h-4.256c.025 1.207.83 1.89 2.013 1.89.634 0 1.207-.11 1.719-.305l.22.988c-.598.268-1.305.39-2.135.39-2 0-3.182-1.256-3.182-3.22 0-1.95 1.207-3.426 3.024-3.426 1.622 0 2.658 1.207 2.658 3.036 0 .256-.012.476-.061.646zm-1.292-1.013c0-.987-.5-1.683-1.403-1.683-.817 0-1.463.708-1.548 1.683h2.951z" fill="#000"/></svg>