<svg width="174" height="43" fill="none" xmlns="http://www.w3.org/2000/svg"><g clip-path="url(#clip0)"><path d="M.515-.688v44.194l21.75-22.096L.516-.688z" fill="url(#paint0_linear)"/><path d="M28.108 15.475l-8.78-5.194L.514-.85v.161l21.75 22.098 5.843-5.935z" fill="url(#paint1_linear)"/><path d="M.515 43.506v.16l18.812-11.129 8.78-5.193-5.841-5.934L.515 43.506z" fill="url(#paint2_linear)"/><path d="M28.108 15.475l-5.842 5.935 5.841 5.934 10.034-5.935-10.033-5.934z" fill="url(#paint3_linear)"/><path d="M137.448 30.048c-.816 0-1.562-.154-2.237-.463a4.237 4.237 0 01-1.7-1.426h-.138a17.6 17.6 0 01.138 2.135v5.288h-1.9v-18.62h1.545l.263 1.759h.092c.488-.704 1.057-1.212 1.706-1.525.648-.312 1.393-.469 2.231-.469 1.664 0 2.948.583 3.852 1.747.904 1.166 1.357 2.8 1.357 4.902 0 2.112-.459 3.75-1.379 4.92-.921 1.168-2.196 1.752-3.83 1.752zm-.274-11.667c-1.282 0-2.208.363-2.781 1.09-.573.728-.867 1.884-.882 3.472v.434c0 1.806.294 3.098.882 3.876.587.778 1.529 1.167 2.826 1.167 1.084 0 1.934-.449 2.548-1.348.614-.898.921-2.138.921-3.718 0-1.602-.307-2.832-.921-3.688-.614-.858-1.479-1.285-2.593-1.285zm9.881 11.432h-1.901V11.567h1.901v18.246zm10.923 0l-.378-1.829h-.092c-.625.806-1.249 1.351-1.871 1.636-.622.285-1.4.428-2.329.428-1.245 0-2.219-.328-2.924-.985-.706-.656-1.059-1.59-1.059-2.802 0-2.595 2.027-3.954 6.077-4.081l2.13-.07v-.798c0-1.009-.212-1.753-.637-2.233-.423-.482-1.1-.722-2.032-.722-1.046 0-2.227.329-3.548.985l-.583-1.49a8.814 8.814 0 012.033-.808 8.613 8.613 0 012.216-.293c1.495 0 2.603.34 3.324 1.02.72.68 1.081 1.772 1.081 3.272v8.772h-1.407v-.002h-.001zm-4.292-1.371c1.181 0 2.11-.332 2.787-.996.675-.664 1.013-1.596 1.013-2.793v-1.16l-1.901.08c-1.51.056-2.599.296-3.267.723-.668.427-1 1.088-1 1.987 0 .703.206 1.24.623 1.606.416.37.996.553 1.745.553zm6.803-11.48h2.036l2.748 7.328c.602 1.673.977 2.881 1.122 3.624h.091c.099-.4.307-1.081.623-2.048.316-.965 1.353-3.933 3.107-8.906h2.037l-5.391 14.634c-.534 1.446-1.158 2.472-1.873 3.08-.713.605-1.589.908-2.626.908a7.487 7.487 0 01-1.717-.2v-1.557a6.47 6.47 0 001.408.14c1.305 0 2.235-.75 2.792-2.25l.698-1.829-5.055-12.925z" fill="gray"/><path d="M102.253 18.156c.604.511 1.863 1.586 1.863 3.63 0 1.987-1.102 2.93-2.204 3.816-.341.348-.736.726-.736 1.318 0 .59.394.914.682 1.155l.946.752c1.154.995 2.203 1.91 2.203 3.765 0 2.527-2.388 5.08-6.9 5.08-3.806 0-5.641-1.855-5.641-3.845 0-.968.47-2.339 2.02-3.28 1.626-1.02 3.83-1.154 5.01-1.236-.367-.484-.786-.994-.786-1.826 0-.457.132-.726.263-1.049-.29.027-.578.054-.84.054-2.78 0-4.355-2.124-4.355-4.22 0-1.237.551-2.608 1.679-3.602 1.496-1.264 3.28-1.479 4.698-1.479h5.403l-1.679.968h-1.626v-.001zm-1.863 11.936c-.209-.027-.342-.027-.603-.027-.236 0-1.654.053-2.757.432-.577.213-2.256.859-2.256 2.769 0 1.906 1.812 3.279 4.62 3.279 2.516 0 3.856-1.24 3.856-2.905 0-1.374-.865-2.096-2.86-3.548zm.761-5.108c.603-.62.654-1.479.654-1.963 0-1.935-1.127-4.946-3.304-4.946-.683 0-1.417.35-1.838.888-.445.565-.578 1.29-.578 1.99 0 1.8 1.024 4.784 3.282 4.784.656 0 1.362-.323 1.784-.753zM85.736 29.66c-4.164 0-6.391-3.328-6.391-6.335 0-3.517 2.802-6.52 6.785-6.52 3.849 0 6.26 3.085 6.26 6.334 0 3.165-2.383 6.521-6.654 6.521zm3.272-2.174c.631-.859.788-1.932.788-2.98 0-2.363-1.1-6.871-4.348-6.871a3.596 3.596 0 00-2.357.914c-1.022.938-1.206 2.12-1.206 3.275 0 2.656 1.284 7.03 4.454 7.03 1.02 0 2.068-.51 2.67-1.367zm-17.47 2.174c-4.165 0-6.392-3.328-6.392-6.335 0-3.517 2.803-6.52 6.785-6.52 3.85 0 6.26 3.085 6.26 6.334 0 3.165-2.384 6.521-6.654 6.521zm3.274-2.174c.629-.859.786-1.932.786-2.98 0-2.363-1.101-6.871-4.35-6.871a3.598 3.598 0 00-2.356.914c-1.022.938-1.205 2.12-1.205 3.275 0 2.656 1.282 7.03 4.454 7.03 1.021 0 2.069-.51 2.67-1.367zM63.144 29.24l-3.766.89c-1.529.242-2.898.457-4.345.457-7.27 0-10.034-5.477-10.034-9.767 0-5.234 3.923-10.09 10.64-10.09 1.422 0 2.79.215 4.028.566 1.975.566 2.897 1.268 3.477 1.673l-2.187 2.132-.92.214.658-1.08c-.895-.889-2.53-2.534-5.636-2.534-4.16 0-7.295 3.239-7.295 7.96 0 5.071 3.582 9.848 9.323 9.848 1.686 0 2.554-.35 3.345-.675v-4.343l-3.976.215 2.106-1.16h5.583l-.684.673c-.186.163-.211.217-.264.431a19.89 19.89 0 00-.052 1.297v3.293z" fill="#7F7F7F"/><path d="M110.578 28.464c-.869-.08-1.052-.242-1.052-1.297V11.894l.014-.174c.107-.944.369-1.105 1.187-1.592h-3.767l-1.976.972h2.013v.012l-.001-.01V27.76c0 .538-.104.62-.71 1.43h4.662l.975-.593c-.45-.053-.898-.078-1.345-.133zm10.717.248c-.287.162-.575.35-.862.483-.865.403-1.754.509-2.54.509-.834 0-2.143-.055-3.479-1.046-1.855-1.34-2.666-3.645-2.666-5.655 0-4.152 3.295-6.189 5.99-6.189.941 0 1.91.241 2.695.75 1.306.883 1.647 2.035 1.828 2.652l-6.145 2.546-2.014.162c.653 3.404 2.902 5.384 5.388 5.384 1.333 0 2.302-.482 3.191-.937l-1.386 1.341zm-2.458-7.986c.496-.188.758-.348.758-.723 0-1.072-1.178-2.305-2.591-2.305-1.047 0-3.008.831-3.008 3.725 0 .456.052.937.079 1.42l4.762-2.117zm4.981-3.728v1.768h-.21v-1.768h-.571v-.183h1.351v.183h-.57zm2.353 1.768V16.98h-.01l-.531 1.785h-.164l-.537-1.785h-.006v1.785h-.191v-1.952h.327l.486 1.577h.006l.479-1.577h.331v1.952h-.19z" fill="#7F7F7F"/></g><defs><linearGradient id="paint0_linear" x1="11.391" y1="-.688" x2="11.391" y2="43.507" gradientUnits="userSpaceOnUse"><stop stop-color="#207CB0"/><stop offset=".376" stop-color="#3CB2BF"/><stop offset=".796" stop-color="#58E9CE"/><stop offset="1" stop-color="#63FFD4"/></linearGradient><linearGradient id="paint1_linear" x1=".515" y1="10.281" x2="28.108" y2="10.281" gradientUnits="userSpaceOnUse"><stop stop-color="#4BC3AE"/><stop offset="1" stop-color="#DEE999"/></linearGradient><linearGradient id="paint2_linear" x1="14.311" y1="21.41" x2="14.311" y2="43.667" gradientUnits="userSpaceOnUse"><stop stop-color="#EC403D"/><stop offset=".384" stop-color="#C93B75"/><stop offset=".799" stop-color="#A636AC"/><stop offset="1" stop-color="#9934C2"/></linearGradient><linearGradient id="paint3_linear" x1="30.204" y1="15.475" x2="30.204" y2="27.344" gradientUnits="userSpaceOnUse"><stop stop-color="#F87"/><stop offset=".612" stop-color="#FFB175"/><stop offset="1" stop-color="#FFC774"/></linearGradient><clipPath id="clip0"><path fill="#fff" d="M0 0h174v43H0z"/></clipPath></defs></svg>