<svg width="565" height="388" fill="none" xmlns="http://www.w3.org/2000/svg"><path d="M439.473 218.148s-5.071-3.62-10.318-1.384c0 0 1.467 3.108 8.005 3.069l2.313-1.685zm.631.209s1.354 6.065-2.773 10.001c0 0-2.289-2.567.313-8.539l2.46-1.462zm6.704-5.519s-.186-5.12-11.824-3.868c0 0-.181 3.293 3.819 5.008 4 1.714 5.917.482 8.005-1.14zm.719-.01s4.836 1.754.053 12.403c0 0-3.198-.843-3.604-5.164-.405-4.321 1.365-5.748 3.551-7.239zm6.831-6.99s.978-8.379-10.875-7.97c0 0-1.13 7.575 8.709 9.908l2.166-1.938zm8.181-9.188s-1.257-9.582-13.203-7.2c0 0-.362 8.233 11.169 9.397l2.034-2.197zm6.088-9.592s-2.357-9.397-14.181-7.049c0 0 2.445 8.452 13.335 8.735l.846-1.686zm5.795-9.368s-2.284-9.742-13.692-7.268c0 0 3.423 9.29 12.895 8.881l.797-1.613zm3.848-8.963s-1.589-11.852-12.225-9.65c0 0 2.651 10.829 11.394 11.331l.831-1.681zm3.702-10.868s-1.99-11.96-12.787-8.915c0 0 3.755 11.375 11.98 10.527l.807-1.612zm2.425-10.138s-3.423-12.013-11.696-12.008c0 0 3.496 12.666 10.914 14.361l.782-2.353zm1.673-9.947s-3.682-14.449-10.44-13.601c0 0 2.508 11.029 10.117 15.817l.323-2.216zm1.188-11.896s-3.506-12.052-10.117-12.783c0 0 2.249 11.813 9.853 15.871l.264-3.088zm1.232-11.068s-4.489-12.106-8.86-12.544c0 0 1.697 11.813 8.347 14.483l.513-1.939zm.944-10.318s-2.543-13.06-6.875-14.297c0 0 .191 10.605 6.401 15.247l.474-.95zm2.167-13.464s-2.802-10.435-6.284-12.145c0 0 .235 12.179 5.379 14.615l.905-2.47zm1.711-8.838l1.345-18.16s-7.14 13.474-1.956 21.352l.611-3.191zm5.819-17.877s5.277-13.1 6.45-13.796c0 0-9.682 8.281-9.193 19.378l2.743-5.582zm-44.45 141.476s8.435-.775 7.726 11.024c0 0-7.628.94-9.726-8.92l2-2.104zm8.264-9.441s9.692.336 8.44 12.393c0 0-8.191 1.14-10.445-10.186l2.005-2.207zm5.746-8.501s8.958-3.775 14.181 7.049c0 0-8.259 3.113-15.022-5.358l.841-1.691zm5.926-10.059s9.174-4.034 14.069 6.537c0 0-9.511 2.86-14.875-4.93l.806-1.607zm3.531-8.813s8.988-7.921 15.585.692c0 0-9.12 6.45-16.054 1.13l.469-1.822z" fill="#6C63FF"/><path d="M481.493 157.557s9.046-8.106 15.575.974c0 0-10.059 6.552-15.957.775l.382-1.749zm2.024-10.22s7.125-10.279 14.949-7.629c0 0-7.403 10.892-14.968 10.108l.019-2.479zm2.352-9.636s7.291-13.017 13.6-10.469c0 0-5.272 10.016-13.854 12.69l.254-2.221zm.954-12.52s7.364-10.181 13.834-8.656c0 0-6.098 10.376-14.626 11.657l.792-3.001zm.939-10.634s5.843-11.516 10.235-11.453c0 0-3.037 11.545-9.947 13.436l-.288-1.983zm1.467-10.318s6.455-11.642 10.963-11.496c0 0-3.462 10.035-10.802 12.548l-.161-1.052zm1.384-12.529s4.865-9.655 8.621-10.625c0 0-2.704 11.887-8.225 13.25l-.396-2.625z" fill="#6C63FF"/><path d="M493.86 81.87l10.606-14.83s-3.144 14.917-12.181 17.674l1.575-2.845zm7.516-16.247s11.936-7.565 12.425-8.846c0 0-6.357 11-17.438 12.558l5.013-3.712zm.836-3.576s13.868-12.3 17.281-12.154c0 0-11.051.078-17.604 11.463l.323.691z" fill="#6C63FF"/><path d="M490.671 93.648l.489.083c3.267-19.51 7.379-30.953 11.575-32.23l-.142-.486c-4.44 1.344-8.577 12.622-11.922 32.633z" fill="#444053"/><path d="M485.17 140.356l.734.087c.225-1.821.42-3.692.572-5.553 1.325-16.197 2.988-31.055 4.846-42.172l-.406-.54c-1.863 11.135-3.849 26.432-5.179 42.654a133.355 133.355 0 01-.567 5.524z" fill="#444053"/><path d="M425.375 226.955c.132-.053 13.315-5.324 27.301-18.565a106.547 106.547 0 0020.46-26.647c6.704-12.378 11.09-27.742 12.944-42.756l-.783.331c-4.156 33.701-20.499 56.226-33.252 68.332-13.849 13.123-26.895 18.341-27.017 18.389l.347.916z" fill="#444053"/><g opacity=".7"><path opacity=".7" d="M419.013 187.282s-5.922-1.948-10.269 1.739c0 0 2.332 2.533 8.562.556l1.707-2.295zm.665.01s3.1 5.393.337 10.366c0 0-2.934-1.768-2.254-8.242l1.917-2.124zm4.758-7.254s-1.712-4.832-12.445-.19c0 0 .807 3.201 5.144 3.649 4.337.448 5.785-1.3 7.301-3.459zm.68-.219s5.134.244 3.755 11.823c0 0-3.31.146-4.988-3.863-1.677-4.009-.41-5.894 1.233-7.96zm4.43-8.715s-1.56-8.281-12.758-4.384c0 0 1.178 7.565 11.271 6.878l1.487-2.494zm5.066-11.204s-4.059-8.769-14.739-2.962c0 0 2.113 7.965 13.472 5.661l1.267-2.699zm2.954-10.936s-5.062-8.282-15.649-2.529c0 0 4.89 7.337 15.34 4.385l.309-1.856zm2.733-10.664s-5.086-8.613-15.252-2.879c0 0 6.039 7.853 14.959 4.657l.293-1.778zm.998-9.699s-5.057-10.844-14.563-5.583c0 0 5.765 9.548 14.259 7.439l.304-1.856zm.283-11.472s-5.472-10.829-14.865-4.721c0 0 6.978 9.743 14.577 6.499l.288-1.778zm-.719-10.41s-6.846-10.455-14.748-8c0 0 7.125 11.073 14.709 10.479l.039-2.479zm-1.388-9.982s-7.824-12.7-14.03-9.89c0 0 5.692 9.788 14.382 12.102l-.352-2.212zm-2.392-11.707s-6.953-10.468-13.476-9.206c0 0 5.672 10.615 14.142 12.232l-.666-3.025zm-2.136-10.936s-7.898-10.23-12.201-9.343c0 0 5.149 10.776 12.293 11.346l-.092-2.002zm-2.177-10.127s-6.327-11.692-10.836-11.614c0 0 3.355 10.07 10.665 12.666l.171-1.052zm-1.951-13.499s-5.794-9.129-9.628-9.743c0 0 3.863 11.565 9.496 12.378l.132-2.635zm-1.007-8.944l-4.142-17.742s-2.792 14.98 4.514 20.948l-.372-3.206zm.205-18.789s1.13-14.069 2.039-15.101c0 0-6.777 10.756-2.992 21.23l.953-6.129zm-.171 148.238s7.824-3.235 10.665 8.242c0 0-6.997 3.157-11.946-5.636l1.281-2.606zm5.071-11.463s9.355-2.548 11.761 9.334c0 0-7.482 3.517-13.018-6.63l1.257-2.704zm2.944-9.816s7.423-6.26 15.648 2.529c0 0-6.954 5.421-15.946-.673l.298-1.856zm2.65-11.36s7.56-6.567 15.384 2.07c0 0-8.225 5.554-15.672-.292l.288-1.778z" fill="#6C63FF"/><path opacity=".7" d="M441.248 128.879s6.22-10.23 15.09-3.966c0 0-6.782 8.866-14.992 5.846l-.098-1.88zm-.215-11.896s6.22-10.42 15.159-3.678c0 0-7.648 9.255-14.997 5.47l-.162-1.792zm-1.115-10.362s3.731-11.92 11.99-11.691c0 0-3.814 12.597-11.271 14.088l-.719-2.397zm-.631-9.894s3.071-14.59 9.853-14.025c0 0-2.044 11.127-9.437 16.227l-.416-2.202zm-2.836-12.232s3.99-11.906 10.626-12.369c0 0-2.724 11.716-10.485 15.467l-.141-3.098zm-2.279-10.435s2.142-12.724 6.357-13.966c0 0 .543 11.92-5.487 15.779l-.87-1.813zm-1.677-10.283s2.684-13.031 7.031-14.225c0 0-.308 10.605-6.567 15.18l-.464-.955zm-2.416-12.354s1.76-10.659 5.056-12.7c0 0 .978 12.15-3.912 15.102l-1.144-2.402z" fill="#6C63FF"/><path opacity=".7" d="M430.235 41.037l5.702-17.303s1.467 15.17-6.357 20.484l.655-3.181zm2.323-17.717s9.159-10.771 9.228-12.13c0 0-2.802 12.388-12.895 17.157l3.667-5.027zm-.269-3.659s9.57-15.856 12.871-16.733c0 0-10.524 3.356-13.36 16.153l.489.58z" fill="#6C63FF"/><path opacity=".7" d="M430.705 53.216l.489-.069c-2.704-19.588-2.201-31.737 1.428-34.197l-.279-.404c-3.848 2.616-4.411 14.604-1.638 34.67z" fill="#444053"/><path opacity=".7" d="M439.409 99.494l.729-.131a143.446 143.446 0 00-1.115-5.476c-3.575-15.856-6.426-30.53-7.966-41.694l-.553-.4c1.546 11.204 4.22 26.379 7.795 42.26.411 1.788.782 3.62 1.11 5.441z" fill="#444053"/><path opacity=".7" d="M408.176 199.87c.108-.088 11.12-9.027 20.539-25.819a106.147 106.147 0 0011.569-31.503c2.705-13.806 2.309-29.774-.41-44.657l-.646.546c6.088 33.408-2.787 59.763-11.364 75.103-9.291 16.631-20.186 25.478-20.299 25.565l.611.765z" fill="#444053"/></g><path d="M95.393 360.027s20.675-1.242 18.235 13.192c0 0 .489 2.547-1.834 3.707 0 0-.039-1.072-2.122-.707a9.481 9.481 0 01-2.245.108 4.714 4.714 0 01-2.748-1.131s-5.81-2.391-8.069-11.852c0 0-1.672-2.065-1.608-2.596l3.491 1.461s-1.193 2.509-.254 4.589c0 0 .112-4.496.782-4.384.137.024 1.815.872 1.815.872s-2.054 4.384-.489 7.541c0 0-.587-5.383 1.144-7.229l2.445 1.432s-2.396 4.511-.773 8.189c0 0-.415-5.646 1.291-7.843l2.225 1.729s-2.254 4.448-.88 7.497c0 0 .181-6.571 1.359-7.068 0 0 1.956 1.71 2.245 2.435 0 0-1.54 3.225-.587 4.93 0 0 .587-4.384 1.071-4.384 0 0 1.956 2.898 2.142 4.871 0 0-.083-2.957-1.673-5.163a5.82 5.82 0 012.969 1.529s-.303-2.051-3.423-2.231c0 0-1.604-2.197-2.035-2.333 0 0 3.135-.258 5.032.579 0 0-1.672-1.948-5.604-1.057l-2.195-1.787s4.122-.561 5.868.058c0 0-2.01-1.71-6.46-.463l-2.391-1.422s3.511-.755 5.604-.487c0 0-2.211-1.189-6.308.097l-1.712-.765s2.577-.487 3.33-.584c.753-.098.792-.288.792-.288a8.942 8.942 0 00-4.831.536s-3.663-1.349-3.6-1.578zm46.838 6.988s11.653-.697 10.269 7.439a1.978 1.978 0 01-1.032 2.089s-.024-.604-1.198-.399a5.163 5.163 0 01-1.266.063 2.617 2.617 0 01-1.546-.638s-3.276-1.349-4.552-6.683c0 0-.944-1.165-.905-1.462l1.956.838s-.67 1.413-.142 2.587c0 0 .064-2.538.44-2.475.079 0 1.023.487 1.023.487s-1.155 2.465-.284 4.253c0 0-.333-3.035.645-4.073l1.384.804s-1.349 2.543-.435 4.618c0 0-.235-3.181.729-4.423l1.252.974s-1.267 2.509-.489 4.229c0 0 .102-3.703.767-3.985.475.401.9.857 1.267 1.359 0 0-.871 1.822-.333 2.782 0 0 .333-2.47.602-2.48 0 0 1.095 1.637 1.208 2.757a5.944 5.944 0 00-.944-2.923 3.31 3.31 0 011.677.863s-.171-1.155-1.956-1.257c0 0-.905-1.242-1.144-1.315 0 0 1.765-.147 2.836.326 0 0-.944-1.091-3.159-.599l-1.242-1.004s2.328-.316 3.311.034c0 0-1.135-.974-3.644-.263l-1.349-.803a12.318 12.318 0 013.164-.273s-1.247-.668-3.555.058l-.978-.433s1.467-.283 1.877-.327c.411-.044.45-.165.45-.165a5.056 5.056 0 00-2.728.302s-2.01-.751-1.976-.882z" fill="#6C63FF"/><path opacity=".1" d="M150.255 381.643c-4.556 0-8.249-.622-8.249-1.388 0-.767 3.693-1.389 8.249-1.389 4.557 0 8.25.622 8.25 1.389 0 .766-3.693 1.388-8.25 1.388z" fill="#6C63FF"/><path d="M98.119 336.392s14.073-.848 12.411 8.978a2.388 2.388 0 01-1.247 2.523s0-.725-1.443-.487a6.708 6.708 0 01-1.531.078 3.231 3.231 0 01-1.868-.769s-3.956-1.627-5.496-8.072c0 0-1.14-1.403-1.09-1.764l2.371 1.009s-.811 1.709-.171 3.127c0 0 .073-3.064.533-2.991.093 0 1.232.589 1.232.589s-1.393 2.977-.342 5.135c0 0-.401-3.663.778-4.92l1.672.974s-1.628 3.069-.523 5.578c0 0-.284-3.844.875-5.359l1.516 1.174s-1.536 3.025-.602 5.106c0 0 .123-4.472.93-4.813 0 0 1.325 1.164 1.525 1.641 0 0-1.046 2.197-.396 3.357 0 0 .396-2.977.724-2.991 0 0 1.32 1.973 1.467 3.327a7.182 7.182 0 00-1.139-3.517 3.98 3.98 0 012.019 1.042s-.205-1.398-2.347-1.52c0 0-1.091-1.495-1.384-1.588 0 0 2.132-.175 3.423.395 0 0-1.134-1.32-3.809-.721l-1.497-1.213s2.802-.385 3.996.039c0 0-1.37-1.165-4.401-.317l-1.629-.974s2.391-.517 3.819-.331c0 0-1.506-.804-4.293.068l-1.169-.478s1.751-.341 2.264-.394c.514-.054.538-.195.538-.195a6.098 6.098 0 00-3.291.365s-2.47-.935-2.425-1.091z" fill="#6C63FF"/><path opacity=".1" d="M107.811 350.427c-5.502 0-9.961-.751-9.961-1.676 0-.926 4.459-1.676 9.961-1.676 5.501 0 9.961.75 9.961 1.676 0 .925-4.46 1.676-9.961 1.676z" fill="#6C63FF"/><path opacity=".1" d="M215.817 341.488l49.052 18.906L336.567 388c2.704-5.003 6.694-11.847 11.633-19.973 16.978-28.035 45.077-71.639 70.084-109.958a12314.947 12314.947 0 0152.441-79.633l-17.56-5.071-143.435-41.442-93.913 209.565z" fill="#000"/><path d="M214.839 338.078l49.052 18.906 71.698 27.606c2.704-5.003 6.694-11.847 11.633-19.973 16.978-28.035 45.077-71.639 70.084-109.958 28.186-43.175 52.441-79.633 52.441-79.633l-17.56-5.071-143.435-41.442-93.913 209.565z" fill="#fff"/><path opacity=".1" d="M214.839 338.078l49.052 18.906a370.224 370.224 0 0083.331 7.633c16.978-28.035 45.077-71.639 70.084-109.958l34.881-84.704-143.435-41.442-93.913 209.565z" fill="#000"/><path d="M178.345 326.318s76.206 44.905 189.978 34.772l90.71-220.281-43.468-7.439-150.261-25.706-85.258 214.396-1.701 4.258z" fill="#FFDA18"/><path opacity=".1" d="M180.046 322.06c17.947.877 38.7.794 59.59-1.685 22.602-2.641 45.311-8.106 64.823-18.112 16.293-8.365 30.225-17.45 42.377-28.357 31.594-28.313 51.15-68.814 68.71-140.536l-150.261-25.706-85.239 214.396z" fill="#000"/><path d="M124.148 309.745s56.197 10.971 113.342 4.214c22.601-2.655 45.335-8.106 64.822-18.112 16.294-8.364 30.225-17.449 42.377-28.357 39.12-35.074 59.761-88.767 81.052-197.249 0 0-93.399 22.453-185.679-26.73 0 0-31.125 193.528-115.914 266.234z" fill="#fff"/><path opacity=".1" d="M237.49 313.959c22.601-2.655 45.335-8.106 64.822-18.112 16.294-8.364 30.225-17.449 42.377-28.357-33.296-2.693-38.084-20.83-38.084-20.83-24.684 39.03-69.115 67.299-69.115 67.299z" fill="#000"/><path opacity=".3" d="M377.443 110.07s-50.172 5.705-97.131-20.582l-3.218 10.294s44.925 22.316 100.349 22.316V110.07z" fill="#6C63FF"/><path opacity=".3" d="M377.443 160.874s-49.879-4.009-105.405-30.743l-1.878 4.277s20.435 25.619 107.283 32.312v-5.846zm-5.913 19.817s-49.878-4.009-105.404-30.739l-1.878 4.278s20.43 25.643 107.282 32.341v-5.88zm-5.408 21.361s-49.878-4.009-105.405-30.738l-1.877 4.277s20.459 25.628 107.282 32.341v-5.88zm-6.42 18.307s-49.879-4.009-105.405-30.738l-1.878 4.277s20.431 25.633 107.283 32.346v-5.885z" fill="#000"/><path opacity=".1" d="M353.785 240.196s-49.879-4.009-105.405-30.739l-1.878 4.277s20.435 25.634 107.283 32.342v-5.88z" fill="#000"/><path opacity=".3" d="M249.842 116.791l13.957 4.733-4.752 13.904-13.957-4.733 4.752-13.904zm-7.94 20.684l13.957 4.734-4.752 13.904-13.957-4.734 4.752-13.904zm-12.729 39.8l13.957 4.733-4.751 13.904-13.957-4.733 4.751-13.904zm-7.303 21.361l13.957 4.733-4.752 13.904-13.956-4.734 4.751-13.903zm13.558-39.673l13.957 4.734-4.751 13.903-13.957-4.733 4.751-13.904z" fill="#6C63FF"/><path d="M89.493 219.005l.523-.487c-1.35-.273-2.621-.395-2.621-.395s4.63-16.689 12.44-22.257c3.863-2.753 7.081-7.337 9.355-11.268a170.463 170.463 0 0113.931-20.348l1.409-1.768.606-.77c-.846-1.276-1.883-2.489-1.765-3.97a1.827 1.827 0 010-.263c.014-.183.047-.364.098-.541l.053.083c.661-1.91 3.198-2.752 5.081-3.805 4.401-2.469 6.284-7.867 7.223-12.885.733-3.897 1.34-8.281 4.401-10.79 1.956-1.612 4.616-2.143 6.587-3.746 1.868-1.52 2.909-3.824 4.083-5.943 1.956-3.532 4.538-6.82 7.946-8.929 3.408-2.11 7.736-2.923 11.477-1.511 1.433.546 2.734 1.394 4.152 1.983 3.521 1.462 7.555 1.267 11.041 2.811 4.294 1.9 7.086 6.099 9.639 10.084 1.32 2.06 3.393 5.076 4.572 8.111v-.317c.565 1.337.874 2.768.909 4.219a6.278 6.278 0 01-.2 1.831c-.528 1.949-2.103 3.026-3.971 3.776-.108.62-.252 1.233-.43 1.836a18.011 18.011 0 01-4.384 7.37 18.09 18.09 0 01-7.303 4.521c-.162.059-.328.098-.489.147a3.88 3.88 0 01-.582 1.071c-1.56 1.949-4.69 1.394-6.724-.024-.083-.054-.161-.122-.24-.18-.013.276-.043.55-.088.823-.044.234-.078.487-.127.697-1.834 9.845-6.528 15.16-6.528 15.16s-.435.652-1.144 1.734c.371 5.431-2.118 10.381-4.993 14.205 2.479 1.427 7.824 4.223 11.13 3.99 0 0 12.147 1.563 13.555.779.195-.107.381.039.557.37 3.345-2.031 14.04-7.887 14.954-.37.827 6.82-8.919 7.692-13.56 7.726.21 1.997.328 3.595.328 3.595l-19.957-1.359-10.391-1.525c1.149 1.515 2.445 2.865 3.712 3.522 0 0 9.393 7.575 11.017 7.644.23 0 .303.229.269.594 3.951 0 16.24.57 12.831 7.39-3.095 6.182-11.809 1.905-15.751-.458a113.38 113.38 0 01-1.721 3.205L154.3 212.95l-3.486-2.923a12.453 12.453 0 01-3.467-.667c0 .043-.035.087-.049.126a6.555 6.555 0 00-.279 1.101c-.978 5.598 2.308 18.653 2.308 18.653s7.228 18.36 3.756 20.864c-3.472 2.504-.905 13.07-.905 13.07a19.509 19.509 0 01-2.083 2.865 8.748 8.748 0 01-1.218 1.154c.162.438.295.886.401 1.34.531 2.251.33 4.612-.572 6.742-2.386 5.768-.934 14.127-.934 14.127l4.685 31.528c2.249-.341 5.154-.623 6.235 0 1.657.931 1.114 5.622-2.734 7.639a9.94 9.94 0 003.961 1.817c3.423.779 5.829 1.276 7.413 1.578.103 0 8.215-1.783 10.299-.604 2.083 1.179 1.08 7.716-4.846 9.319-5.8 1.564-27.429 3.858-33.658 2.923l-.397-.068c-5.295-1.043-.645-7.975-.058-8.818.039-.282.073-.579.112-.901.083-.721.157-1.549.21-2.436-5.907.541-11.736.804-14.41.405-.128 0-.245-.039-.353-.064-4.689-.925-.581-7.053-.053-7.794l.073-.599v-.054c0-.141.034-.292.049-.438.015-.146 0-.249.039-.38.039-.132 0-.234.034-.356l.059-.745v-.317c0-.195.024-.389.034-.589v-.327c0-.292 0-.594.03-.896v-2.382c0-.326-.03-.663-.049-.999l-.03-.36c0-.249-.039-.487-.063-.741 0-.121 0-.243-.039-.365-.04-.341-.084-.682-.132-1.028 0-.102-.035-.204-.049-.307-.044-.258-.088-.521-.137-.784 0-.127-.049-.258-.079-.39a25.743 25.743 0 00-.19-.847c0-.078-.034-.156-.054-.234a23.42 23.42 0 00-.289-1.013 9.5 9.5 0 00-.112-.351c-.083-.254-.171-.487-.264-.75l-.117-.312a19.035 19.035 0 00-.421-.974 5.848 5.848 0 00-.127-.249c-.122-.253-.254-.487-.391-.75l-.167-.288a13.869 13.869 0 00-.586-.92c-5.379-7.639-6.798-22.37-6.665-25.575.132-3.206-.641-9.855-1.604-10.839-.646-.658-4.401-5.846-6.646-9.792a28.668 28.668 0 01-1.037-2.002 63.1 63.1 0 01-2.65-.974c.562-2.045.832-4.159.802-6.28-.039-4.145-1.184-9.606-5.907-14.039-6.974-6.547-7.947-13.036-8.04-15.53v-.463c.015-.458.04-.682.04-.682z" fill="url(#paint0_linear)"/><path d="M108.075 259.862a83.556 83.556 0 006.357 9.679c.919.975 1.658 7.556 1.53 10.717-.127 3.162 1.218 17.737 6.357 25.288 5.14 7.551 2.499 20.601 2.499 20.601l8.201 2.865h9.853l6.788-2.022 1.789-4.92s-2.386-.365-8.313-1.768a7.702 7.702 0 01-4.241-2.449 7.647 7.647 0 01-1.896-4.503l-4.161-28.951s-1.227-7.307.797-12.363c.57-1.424.807-2.958.692-4.486a10.056 10.056 0 00-1.357-4.332l-.132-.204s-6.421-5.052-12.964-8.214c-5.794-2.786-11.672-4.111-13.34.833-.215.639.489 2.28 1.541 4.229z" fill="#A5636D"/><path opacity=".05" d="M108.075 259.862a83.556 83.556 0 006.357 9.679c.919.975 1.658 7.556 1.53 10.718-.127 3.161 1.218 17.736 6.357 25.287 3.619 5.325 3.379 13.372 2.934 17.664-.19 1.797-.425 2.923-.425 2.923l8.201 2.864h9.843l6.788-2.007 1.789-4.92s-.596-.093-1.956-.356c-1.359-.263-3.423-.711-6.386-1.412a7.703 7.703 0 01-4.224-2.456 7.655 7.655 0 01-1.884-4.496l-4.161-28.951s-1.227-7.307.797-12.363c.57-1.424.807-2.958.692-4.486a10.056 10.056 0 00-1.357-4.332l-.132-.204s-6.421-5.052-12.964-8.214c-5.794-2.786-11.672-4.111-13.34.833-.215.639.489 2.28 1.541 4.229z" fill="#000"/><path opacity=".1" d="M124.818 326.152l8.201 2.865h9.853l6.788-2.027 1.789-4.92s-.596-.093-1.956-.356a3.672 3.672 0 01-.663 2.525 3.694 3.694 0 01-2.178 1.45l-3.853.132c-.543 0-1.091.029-1.628.029a49.295 49.295 0 01-15.932-2.635 38.112 38.112 0 01-.421 2.937z" fill="#000"/><path d="M142.804 326.649l3.858-.131s3.599-.76 2.719-4.828c0 0 6.944-1.569 8.719-.531 1.775 1.038.919 6.762-4.098 8.165-4.89 1.368-23.208 3.38-28.475 2.557l-.337-.058c-4.773-.975 0-7.795 0-7.795a49.507 49.507 0 0017.614 2.621z" fill="#BEBED0"/><path d="M119.043 260.982c.259.517.538 1.052.856 1.613 2.42 4.384 6.303 9.903 6.983 10.619 1.037 1.101 1.863 8.525 1.731 12.111-.132 3.585 1.374 20.012 7.174 28.537 2.968 4.384 3.638 10.351 3.589 15.155a48.649 48.649 0 01-.289 4.871c-.215 1.983-.489 3.22-.489 3.22l9.252 3.23h11.135l7.663-2.27 2.005-5.573s-.67-.107-2.177-.404a210.81 210.81 0 01-7.207-1.584 8.701 8.701 0 01-4.774-2.768 8.64 8.64 0 01-2.136-5.075l-4.69-32.672s-1.383-8.257.895-13.957a11.163 11.163 0 00.548-6.669 10.63 10.63 0 00-1.467-3.517s-1.79-1.403-4.489-3.259a99.088 99.088 0 00-4.064-2.641c-6.533-4.028-15.125-8.14-19.242-5.144a5.307 5.307 0 00-1.897 2.723c-.167.565.298 1.847 1.09 3.454z" fill="#A5636D"/><path opacity=".1" d="M138.623 337.113l9.252 3.23h11.11l7.663-2.27 2.005-5.573s-.67-.107-2.177-.405a4.053 4.053 0 01-1.3 3.6 4.367 4.367 0 01-2.758 1.033l-3.506.112c-.612 0-1.228.034-1.839.034a55.82 55.82 0 01-17.986-2.981c-.215 1.983-.464 3.22-.464 3.22z" fill="#000"/><path d="M158.916 337.668l3.502-.117a4.415 4.415 0 002.763-1.032c.89-.789 1.657-2.153 1.159-4.448 0 0 7.824-1.768 9.843-.599 2.02 1.169 1.032 7.633-4.626 9.217-5.54 1.544-26.196 3.814-32.142 2.888l-.377-.068c-5.379-1.101 0-8.807 0-8.807a55.684 55.684 0 0019.878 2.966z" fill="#BEBED0"/><path opacity=".1" d="M108.075 259.862c3.349 1.164 8.269 2.708 10.968 2.772.279.01.559-.003.836-.039 1.888-.259 7.722.156 13.071.633 2.147.19 4.211.39 5.917.565 2.543.263 4.294.453 4.294.453v-1.651a99.088 99.088 0 00-4.064-2.641c-6.533-4.028-15.125-8.14-19.242-5.144-5.795-2.786-11.673-4.111-13.34.833-.196.629.508 2.27 1.56 4.219z" fill="#000"/><path d="M92.001 221.441c.093 2.47 1.022 8.88 7.682 15.359 8.49 8.257 4.891 20.115 4.891 20.115s10.122 3.96 14.489 4.067c.279.011.559-.002.836-.039 2.621-.365 13.027.595 19.007 1.199 2.543.263 4.294.453 4.294.453V227.52l-46.91-11.345-4.25 4.214c-.037.349-.05.701-.039 1.052z" fill="#5C5C8E"/><path opacity=".1" d="M142.408 262.161l.772.083v.37s-1.75-.19-4.293-.453c-4.294-.433-10.851-1.042-15.189-1.223 3.003-.272 12.92.638 18.71 1.223zM92.02 220.408l4.25-4.219 2.832.707-3.56 3.532a7.768 7.768 0 000 1.057c.093 2.465 1.022 8.88 7.682 15.359 8.489 8.252 4.89 20.114 4.89 20.114s8.377 3.274 13.174 3.951a12.29 12.29 0 00-1.37.073 4.861 4.861 0 01-.836.044c-4.367-.107-14.489-4.068-14.489-4.068s3.619-11.862-4.89-20.114c-6.66-6.479-7.59-12.894-7.682-15.359a7.773 7.773 0 010-1.077z" fill="#000"/><path d="M185.743 196.665s14.181-9.802 15.223-.975c1.042 8.827-15.223 7.566-15.223 7.566v-6.591z" fill="#A5636D"/><path d="M161.293 190.166s7.673 5.057 11.917 4.745c0 0 11.599 1.549 12.949.775 1.35-.775 2.171 11.204 2.171 11.204l-19.071-1.34-12.225-1.861s-6.113-3.712-6.113-6.912c0-3.201 10.372-6.611 10.372-6.611z" fill="#F7CDDD"/><path opacity=".05" d="M161.293 190.166s7.673 5.057 11.917 4.745c0 0 11.599 1.549 12.949.775 1.35-.775 2.171 11.204 2.171 11.204l-19.071-1.34-12.225-1.861s-6.113-3.712-6.113-6.912c0-3.201 10.372-6.611 10.372-6.611z" fill="#000"/><path d="M172.545 215.673s17.247-.711 13.384 7.307c-3.863 8.019-16.934-1.715-16.934-1.715l3.55-5.592z" fill="#A5636D"/><path d="M155.195 198.628s13.981-10.42 12.01-23.11-12.01 9.713-12.01 9.713v13.397z" fill="#5C5C8E"/><path d="M159.058 141.096a17.592 17.592 0 004.973 12.232 16.617 16.617 0 002.553 2.168 18.274 18.274 0 005.8 2.67c.825.205 1.663.353 2.508.443.607.058 1.218.093 1.839.093a17.312 17.312 0 005.824-.975 17.67 17.67 0 007.83-5.445 17.545 17.545 0 002.579-18.137 17.624 17.624 0 00-6.005-7.397 17.726 17.726 0 00-18.343-1.282 17.648 17.648 0 00-6.983 6.489 17.553 17.553 0 00-2.575 9.161v-.02z" fill="#A5636D"/><path opacity=".1" d="M92.001 221.441c1.585.292 3.54.818 3.54 1.637 0 1.378 22.094 8.807 22.094 8.807s-.827 1.919 1.379 5.222c2.205 3.303 20.161 22.282 20.161 22.282l-.058.565-.23 2.188-1.095 10.454s6.904-2.475 9.115-2.202c.714.092 1.467-.366 2.205-1.023a10.63 10.63 0 00-1.467-3.517s-1.79-1.403-4.489-3.259V227.52l-46.91-11.345-4.25 4.214c-.022.35-.02.702.005 1.052z" fill="#000"/><path d="M90.016 219.502s5.526.546 5.526 1.924c0 1.379 22.093 8.808 22.093 8.808s-.827 1.919 1.379 5.222c2.205 3.303 20.161 22.287 20.161 22.287l-1.383 13.201s6.904-2.474 9.115-2.202c.978.122 2.078-.784 2.982-1.841a19.196 19.196 0 001.991-2.83s-2.489-10.459.826-12.934c3.316-2.475-3.589-20.63-3.589-20.63s-3.12-12.91-2.201-18.449c.057-.37.146-.735.264-1.091 0-.039.025-.083.04-.122 1.956-5.29 23.159-49.688 23.159-49.688a32.04 32.04 0 00-.264-3.766 23.516 23.516 0 00-.167-1.072 18.052 18.052 0 00-.43-1.948 12.04 12.04 0 00-.401-1.213c-.655-1.676-1.658-2.967-3.154-2.996 0 0-1.658-1.827-5.545-2.324-2.846-.37-6.91 0-12.411 2.324-12.973 5.495-16.015 5.777-16.015 5.777l-6.518 8.525-1.34 1.749a168.467 168.467 0 00-13.306 20.119c-2.171 3.898-5.247 8.423-8.934 11.146-7.458 5.52-11.878 22.024-11.878 22.024z" fill="#F7CDDD"/><path opacity=".1" d="M138.417 187.691s-18.435 4.541-25.579 15.989l25.579-15.989zm-5.696 20.115s-3.487 23.319-2.519 25.073c.968 1.754 2.519-25.073 2.519-25.073zm1.246 11.969c1.34 1.749 6.783 15.267 6.783 15.267l-1.57 22.701-1.384 13.201s6.9-2.474 9.111-2.202c.978.122 2.083-.784 2.982-1.841-1.432-7.731-4.498-23.909-5.051-24.221-.729-.414-4.46-13.411-4.655-17.05-.196-3.639-5.379-11.75-5.379-11.75s-2.186 4.146-.837 5.895zm5.208-22.282c.343 1.028.871 7.015.871 7.015.381 5.271 4.401 6.995 6.87 7.55.057-.37.146-.735.264-1.091 1.658-4.672 23.199-49.791 23.199-49.791a29.564 29.564 0 00-.861-6.791c-4.689-1.373-12.113.741-12.113.741-2.146-.283-9.149 13.586-9.149 13.586s-4.665 10.62-5.178 12.067c-.514 1.447 0 3.819-.206 4.647-.205.828-2.386 1.54-2.694 2.68-.308 1.139-.108 3.41-.313 3.814-.205.404-1.037 4.54-.69 5.573z" fill="#000"/><path d="M140.833 196.665c.342 1.032.871 7.015.871 7.015.313 4.384 3.149 6.332 5.516 7.165 1.066.38 2.183.602 3.315.658l3.33 2.884 15.379 11.277s5.731-10.556 4.176-10.615c-1.555-.058-10.523-7.56-10.523-7.56-2.743-1.461-5.492-6.333-6.768-8.837.074-.298.129-.601.166-.906.553-4.672 12.152-22.559 12.152-22.559s4.484-5.257 6.23-14.995c.049-.224.083-.453.127-.687a6.86 6.86 0 00.088-.915c.211-3.747-2.528-5.111-5.775-5.432a23.26 23.26 0 00-5.086.156c-1.678.21-3.339.536-4.973.974-1.388-.185-4.811 5.568-7.056 9.646-1.208 2.211-2.078 3.936-2.078 3.936s-4.665 10.624-5.179 12.066c-.513 1.442 0 3.824-.205 4.648-.206.823-2.387 1.544-2.695 2.684-.308 1.14-.107 3.41-.313 3.814-.205.404-1.046 4.55-.699 5.583z" fill="#F7CDDD"/><path opacity=".1" d="M122.994 172.863c2.934 2.986 7.673 2.996 11.477 1.461 3.805-1.534 7.027-4.282 10.553-6.42 2.288-1.393 4.714-2.533 6.968-3.97.333-.215.655-.429.978-.653 2.602-1.832 4.856-4.185 7.55-5.846a11.78 11.78 0 016.064-1.949 6.93 6.93 0 012.89.605c.168.068.332.147.489.238a12.508 12.508 0 012.445 1.827c.763.682 1.492 1.408 2.294 2.046.048-.224.083-.453.127-.687a7.03 7.03 0 00.088-.916c.606.059 1.217.093 1.838.093a17.303 17.303 0 005.824-.974c0-.074 0-.147.044-.22.661-3.468 1.854-7.141 4.656-9.09 1.623-1.13 4.215-1.593 6.464-2.435.78-2.704.898-5.553.345-8.311a17.59 17.59 0 00-3.524-7.541 17.662 17.662 0 00-6.606-5.087 17.733 17.733 0 00-16.2.926 17.638 17.638 0 00-5.978 5.807 17.552 17.552 0 00-1.338 16.11c-2.846-.37-6.909 0-12.411 2.324-12.973 5.495-16.015 5.777-16.015 5.777l-6.518 8.525c.704 1.072 1.501 2.129 1.575 3.381.122 2.295-2.123 3.897-4.079 4.979z" fill="#000"/><path d="M187.259 146.747c-2.802 1.949-3.995 5.617-4.66 9.08-.205 1.082-.401 2.222-1.066 3.079-1.467 1.92-4.479 1.379-6.421 0-1.941-1.378-3.472-3.468-5.638-4.443-2.875-1.295-6.259-.35-8.954 1.33-2.694 1.681-4.948 4.034-7.55 5.846-2.518 1.768-5.325 3.03-7.946 4.623-3.526 2.139-6.748 4.901-10.553 6.421-3.804 1.519-8.557 1.515-11.472-1.462 1.956-1.081 4.201-2.679 4.049-4.998-.152-2.319-2.861-4.048-2.68-6.425.181-2.378 2.988-3.308 5.003-4.477 4.205-2.436 6-7.794 6.9-12.739.699-3.868 1.276-8.189 4.176-10.673 1.873-1.598 4.401-2.119 6.288-3.703 1.785-1.505 2.778-3.78 3.912-5.879 1.873-3.493 4.333-6.742 7.585-8.832 3.252-2.09 7.389-2.923 10.958-1.491 1.37.541 2.617 1.379 3.966 1.949 3.365 1.461 7.213 1.252 10.543 2.776 4.103 1.881 6.768 6.031 9.208 9.972 2.064 3.376 6.157 9.329 4.998 13.713-1.154 4.458-7.604 4.219-10.646 6.333z" fill="#4C3E42"/><path opacity=".1" d="M124.373 159.53c.015-.181.046-.361.093-.536.743 1.164 1.668 2.294 1.756 3.658a3.3 3.3 0 01-.079.94c-.826-1.31-1.887-2.542-1.77-4.062zm9.272 9.596c3.804-1.519 7.022-4.282 10.548-6.42 2.626-1.593 5.432-2.855 7.951-4.623 2.601-1.832 4.856-4.185 7.55-5.846 2.694-1.661 6.073-2.626 8.954-1.335 2.166.975 3.692 3.045 5.638 4.448 1.946 1.403 4.929 1.949 6.421 0 .665-.857.86-1.997 1.066-3.079.66-3.463 1.858-7.131 4.655-9.08 3.046-2.119 9.496-1.88 10.665-6.333a6.91 6.91 0 00.152-2.436c.748 1.988 1.134 3.985.679 5.724-1.173 4.472-7.623 4.234-10.665 6.333-2.802 1.949-3.995 5.622-4.66 9.085-.205 1.082-.401 2.222-1.061 3.079-1.467 1.919-4.479 1.379-6.426-.024-1.946-1.403-3.467-3.469-5.638-4.443-2.875-1.291-6.259-.346-8.954 1.335-2.694 1.68-4.948 4.033-7.55 5.846-2.518 1.773-5.325 3.03-7.946 4.623-3.526 2.143-6.748 4.905-10.553 6.425-3.804 1.52-8.557 1.51-11.472-1.461a14.11 14.11 0 002.137-1.408c2.65.969 5.814.667 8.509-.41z" fill="#000"/><path d="M220.194 202.447l-39.121-14.556a3.718 3.718 0 00-2.846.098 3.695 3.695 0 00-1.941 2.075c-.171.456-.25.941-.232 1.428a3.682 3.682 0 001.183 2.581c.357.331.777.59 1.235.76l39.12 14.561 8.382-.838-5.78-6.109z" fill="#5C5C8E"/><path opacity=".1" d="M177.474 188.895a3.697 3.697 0 00.101 2.837 3.721 3.721 0 002.085 1.937l39.12 14.556 6.299-.629.904.974-8.381.838-39.12-14.56a3.706 3.706 0 01-2.419-3.342 3.696 3.696 0 01.233-1.427 3.69 3.69 0 011.52-1.852 4.084 4.084 0 00-.342.668z" fill="#fff"/><path d="M220.194 202.447l-2.607 6.947 6.88-.687 1.507-.151-2.059-2.173-3.721-3.936z" fill="#EFC8C4"/><path d="M223.92 206.383a1.488 1.488 0 00-.401.439.624.624 0 000 .677c.112.108.241.198.381.268a1.24 1.24 0 01.558.94l1.506-.151-2.044-2.173z" fill="#727A9C"/><path d="M254.341 127.179l6.596-3.206a.8.8 0 00.405-.455.786.786 0 00-.038-.607l-.699-1.432a.799.799 0 00-.765-.446.788.788 0 00-.301.081l-4.445 2.158-4.641-9.48a.806.806 0 00-.456-.404.806.806 0 00-.61.034l-1.438.701a.785.785 0 00-.406.455.782.782 0 00.04.607l5.692 11.628a.799.799 0 001.066.366zm-14.411 41.002l6.596-3.205a.788.788 0 00.405-.455.786.786 0 00-.038-.607l-.699-1.432a.805.805 0 00-1.071-.366l-4.44 2.159-4.636-9.49a.806.806 0 00-.456-.404.806.806 0 00-.61.034l-1.433.701a.804.804 0 00-.45.762.786.786 0 00.079.3l5.692 11.628a.81.81 0 001.071.366l-.01.009zm6.469-20.211l6.597-3.206a.794.794 0 00.372-1.062l-.705-1.432a.796.796 0 00-.456-.404.793.793 0 00-.61.039l-4.445 2.158-4.64-9.494a.787.787 0 00-.457-.403.81.81 0 00-.609.037l-1.438.697a.808.808 0 00-.403.458.809.809 0 00.036.609l5.697 11.637a.799.799 0 001.066.366h-.005zm-12.728 38.723l6.596-3.206a.796.796 0 00.404-.455.78.78 0 00-.037-.607l-.699-1.432a.794.794 0 00-.457-.402.81.81 0 00-.609.037l-4.445 2.158-4.641-9.48a.808.808 0 00-1.071-.37l-1.433.701a.796.796 0 00-.447.763.778.778 0 00.08.299l5.688 11.629a.809.809 0 001.071.365zm246.624 125.858s-2.91 3.79 1.34 9.509c4.249 5.719 7.76 10.552 6.357 14.127 0 0-6.416-10.624-11.634-10.77-5.217-.146-1.804-6.474 3.937-12.866z" fill="#3ACC6C"/><path opacity=".1" d="M480.295 312.551a4.653 4.653 0 00-.597 1.189c-5.09 5.962-7.824 11.526-2.909 11.691 4.562.127 10.034 8.253 11.34 10.303-.04.166-.09.329-.152.488 0 0-6.416-10.625-11.633-10.771-5.218-.146-1.79-6.508 3.951-12.9z" fill="#000"/><path d="M474.886 317.384c0 1.33.152 2.435.338 2.435.186 0 .332-1.081.332-2.435 0-1.355-.186-.707-.371-.707-.186 0-.299-.628-.299.707z" fill="#FFD037"/><path d="M473.033 318.972c1.174.638 2.201 1.028 2.289.862.088-.166-.793-.809-1.956-1.461-1.164-.653-.71-.176-.798 0-.088.175-.713-.039.465.599z" fill="#FFD037"/><path d="M495.659 312.551s2.905 3.79-1.345 9.509c-4.249 5.719-7.755 10.552-6.357 14.127 0 0 6.411-10.624 11.634-10.77 5.222-.146 1.809-6.474-3.932-12.866z" fill="#3ACC6C"/><path opacity=".1" d="M495.659 312.551c.252.367.451.767.592 1.189 5.095 5.962 7.824 11.526 2.91 11.691-4.558.127-10.03 8.253-11.34 10.303.041.166.093.329.156.488 0 0 6.411-10.669 11.643-10.815 5.233-.146 1.78-6.464-3.961-12.856z" fill="#000"/><path d="M501.063 317.384c0 1.33-.147 2.435-.333 2.435-.186 0-.337-1.081-.337-2.435 0-1.355.186-.707.371-.707.186 0 .299-.628.299.707z" fill="#FFD037"/><path d="M502.921 318.972c-1.179.638-2.201 1.028-2.289.862-.088-.166.793-.809 1.956-1.461 1.164-.653.714-.176.802 0 .088.175.705-.039-.469.599z" fill="#FFD037"/><path opacity=".1" d="M487.972 365.163c-16.796 0-30.411-2.081-30.411-4.648 0-2.566 13.615-4.647 30.411-4.647s30.411 2.081 30.411 4.647c0 2.567-13.615 4.648-30.411 4.648z" fill="#6C63FF"/><path d="M472.324 331.072l.147 1.184.2 1.671.088.697.201 1.671.093.696.2 1.671 2.328 18.999c.21 1.695 2.992 3.02 6.357 3.02h12.083c3.36 0 6.137-1.325 6.357-3.02l2.328-18.999.205-1.671.083-.696.211-1.671.083-.697.205-1.671.147-1.184c.112-.974-1.389-1.773-3.291-1.773H475.61c-1.907 0-3.408.814-3.286 1.773z" fill="#65617D"/><path d="M472.466 332.256l.205 1.671h30.607l.2-1.671h-31.012zm.288 2.368l.206 1.671h30.025l.205-1.671h-30.436zm.294 2.367l.205 1.671h29.443l.205-1.671h-29.853z" fill="#9D9CB5"/><path opacity=".1" d="M109.631 383.93c-8.08 0-14.631-1.104-14.631-2.465 0-1.361 6.551-2.465 14.631-2.465s14.631 1.104 14.631 2.465c0 1.361-6.551 2.465-14.631 2.465z" fill="#6C63FF"/><defs><linearGradient id="paint0_linear" x1="145.513" y1="343.792" x2="145.513" y2="108.691" gradientUnits="userSpaceOnUse"><stop stop-color="gray" stop-opacity=".25"/><stop offset=".54" stop-color="gray" stop-opacity=".12"/><stop offset="1" stop-color="gray" stop-opacity=".1"/></linearGradient></defs></svg>