<svg width="111" height="29" fill="none" xmlns="http://www.w3.org/2000/svg"><path d="M14.367 8.785H9.141V23H5.625V8.785H.469V5.937h13.898v2.848zm-1.172 7.758c0-1.258.242-2.379.727-3.363.484-.985 1.18-1.746 2.086-2.285.914-.54 1.973-.81 3.176-.81 1.71 0 3.105.524 4.183 1.571 1.086 1.047 1.692 2.469 1.817 4.266l.023.867c0 1.945-.543 3.508-1.629 4.688-1.086 1.171-2.543 1.757-4.371 1.757-1.828 0-3.289-.586-4.383-1.757-1.086-1.172-1.629-2.766-1.629-4.782v-.152zm3.387.246c0 1.203.227 2.125.68 2.766.453.633 1.101.949 1.945.949.82 0 1.461-.313 1.922-.938.46-.632.691-1.64.691-3.023 0-1.18-.23-2.094-.691-2.742-.461-.649-1.11-.973-1.945-.973-.829 0-1.47.324-1.922.973-.453.64-.68 1.636-.68 2.988zM27.516 23V5.937h5.25c1.5 0 2.84.34 4.02 1.02 1.187.672 2.112 1.633 2.776 2.883.665 1.242.997 2.656.997 4.242v.785c0 1.586-.328 2.996-.985 4.23a6.97 6.97 0 01-2.754 2.872c-1.187.68-2.527 1.023-4.02 1.031h-5.284zM31.03 8.785v11.39h1.7c1.374 0 2.425-.448 3.152-1.347.726-.898 1.097-2.183 1.113-3.855v-.903c0-1.734-.36-3.047-1.078-3.937-.719-.899-1.77-1.348-3.152-1.348H31.03zm11.344 7.758c0-1.258.242-2.379.727-3.363.484-.985 1.18-1.746 2.086-2.285.914-.54 1.972-.81 3.175-.81 1.711 0 3.106.524 4.184 1.571 1.086 1.047 1.691 2.469 1.816 4.266l.024.867c0 1.945-.543 3.508-1.63 4.688-1.085 1.171-2.542 1.757-4.37 1.757-1.828 0-3.29-.586-4.383-1.757-1.086-1.172-1.629-2.766-1.629-4.782v-.152zm3.387.246c0 1.203.226 2.125.68 2.766.453.633 1.101.949 1.945.949.82 0 1.46-.313 1.922-.938.46-.632.691-1.64.691-3.023 0-1.18-.23-2.094-.691-2.742-.461-.649-1.11-.973-1.946-.973-.828 0-1.468.324-1.922.973-.453.64-.68 1.636-.68 2.988zM66.188 23h-9.096V6.2h1.632v15.36h7.584l-.12 1.44zm4.09-12.12V23h-1.56V11l1.56-.12zm-.84-3.096c-.32 0-.569-.104-.745-.312-.16-.208-.24-.472-.24-.792 0-.32.088-.576.264-.768.192-.208.448-.312.768-.312s.576.104.768.312c.208.192.312.464.312.816 0 .352-.112.616-.336.792-.208.176-.472.264-.792.264zm10.7 4.8c-.575-.192-1.36-.288-2.351-.288-.992 0-1.76.176-2.304.528-.544.352-.816.792-.816 1.32 0 .512.16.888.48 1.128.32.24.72.448 1.2.624.48.16 1 .32 1.56.48.576.16 1.104.368 1.584.624 1.12.576 1.68 1.432 1.68 2.568 0 1.136-.392 2.008-1.176 2.616-.768.608-1.896.912-3.384.912-.752 0-1.48-.072-2.184-.216-.688-.16-1.216-.376-1.584-.648l.528-1.272c.368.32 1.112.552 2.232.696.352.048.712.072 1.08.072.832 0 1.528-.168 2.088-.504.56-.352.84-.88.84-1.584 0-.48-.16-.856-.48-1.128a3.914 3.914 0 00-1.2-.672c-.48-.192-1.008-.36-1.584-.504a8.954 8.954 0 01-1.56-.552c-.48-.24-.88-.544-1.2-.912-.32-.384-.48-.896-.48-1.536 0-1.04.4-1.872 1.2-2.496.8-.624 1.872-.936 3.216-.936.336 0 .68.024 1.032.072.352.032.672.064.96.096l1.008.168-.384 1.344zm8.384 9.984c-.288.288-.808.432-1.56.432-1.056 0-1.768-.272-2.136-.816-.624-.592-.936-1.392-.936-2.4v-7.392h-1.344L82.762 11h1.128V8.624l1.56-.144V11h2.784v1.392H85.45v7.776c0 .928.48 1.392 1.44 1.392.416 0 .864-.096 1.344-.288l.288 1.296z" fill="#000"/><path d="M110.645 6.024s-18.667-1.101-16.464 11.69c0 0-.442 2.259 1.656 3.286 0 0 .035-.95 1.916-.626.669.11 1.35.142 2.026.095a4.302 4.302 0 002.482-1.002s5.245-2.12 7.285-10.503c0 0 1.51-1.83 1.452-2.301l-3.152 1.295s1.077 2.223.23 4.067c0 0-.102-3.985-.707-3.886-.124.022-1.638.773-1.638.773s1.854 3.885.442 6.683c0 0 .529-4.77-1.034-6.407l-2.207 1.27s2.163 3.997.697 7.257c0 0 .376-5.004-1.165-6.951l-2.009 1.533s2.035 3.941.795 6.644c0 0-.164-5.824-1.228-6.264 0 0-1.766 1.515-2.026 2.158 0 0 1.39 2.858.53 4.37 0 0-.53-3.886-.968-3.886 0 0-1.766 2.568-1.934 4.317 0 0 .076-2.62 1.51-4.576a5.291 5.291 0 00-2.68 1.355s.274-1.817 3.091-1.977c0 0 1.448-1.947 1.837-2.068 0 0-2.83-.229-4.543.514 0 0 1.51-1.727 5.06-.937l1.982-1.584s-3.722-.497-5.298.051c0 0 1.814-1.515 5.832-.41l2.159-1.26s-3.17-.67-5.06-.432c0 0 1.996-1.054 5.696.086l1.545-.678s-2.326-.431-3.006-.518c-.68-.086-.716-.254-.716-.254a8.217 8.217 0 014.363.474s3.307-1.195 3.249-1.398z" fill="#6C63FF"/><path opacity=".1" d="M95 24c2.21 0 4-.448 4-1s-1.79-1-4-1-4 .448-4 1 1.79 1 4 1z" fill="#6C63FF"/></svg>