<svg width="22" height="22" viewBox="0 0 26 26" fill="#fff" xmlns="http://www.w3.org/2000/svg"><path d="M22.14 3.047h-4.57v-.762A2.288 2.288 0 0015.285 0h-4.57A2.288 2.288 0 008.43 2.285v.762H3.86a2.288 2.288 0 00-2.286 2.285v1.523c0 .421.341.762.762.762h.822l1.34 16.298v.007A2.274 2.274 0 006.774 26h12.452c1.19 0 2.168-.893 2.276-2.078v-.007l1.34-16.298h.822c.42 0 .762-.34.762-.762V5.332a2.288 2.288 0 00-2.285-2.285zM9.954 2.285c0-.42.342-.762.762-.762h4.57c.42 0 .762.342.762.762v.762H9.953v-.762zm10.031 21.501a.758.758 0 01-.758.69H6.774a.758.758 0 01-.758-.69L4.686 7.617h16.628l-1.33 16.17zm2.918-17.692H3.098v-.762c0-.42.341-.762.761-.762h18.282c.42 0 .761.342.761.762v.762z" fill="#inherit"/><path d="M13 9.14a.762.762 0 00-.762.762v10.766a.762.762 0 001.524 0V9.902A.762.762 0 0013 9.141zm4.57 0a.762.762 0 00-.761.762v10.766a.762.762 0 001.523 0V9.902a.762.762 0 00-.762-.761zm-9.14 0a.762.762 0 00-.762.762v10.766a.762.762 0 001.523 0V9.902a.762.762 0 00-.761-.761z" fill="#inherit"/></svg>