<svg width="970" height="650" fill="none" xmlns="http://www.w3.org/2000/svg"><path opacity=".1" d="M311.36 486.477c22.889 44.028 78.267 53.837 134.267 53.837 145 0 272.5 0 446.496-31.013 75.004-13.369 105.757-43.192 147.647-80.577 85.24-76.18 109.18-211.138 55.47-312.617-18.27-34.534-44.08-64.688-71.46-92.833-48.676-50.029-103.925-95.24-168.169-123.271-45.808-19.985-95.093-30.758-144.525-38.309-138.012-21.005-281.219-16.857-413.415 25.53C239.673-94.2 181.885-66.63 145.385-18.632c-36.499 47.997-45.371 120.429-6.845 167.609 15.936 19.517 38.062 32.989 59.803 45.954 32.007 19.067 64.592 38.199 90.556 64.755 26.814 27.427 54.49 72.92 36.106 109.346-19.718 39.049-36.524 73.535-13.645 117.445z" fill="#6C63FF"/></svg>